<svg viewBox="0 0 25 8.74493" xmlns="http://www.w3.org/2000/svg" xmlns:xlink="http://www.w3.org/1999/xlink" width="25.000000" height="8.744934" fill="none" customFrame="#000000">
	<path id="Icon color" d="M0 4.99124L0 3.74124C0 3.39606 0.279908 3.11624 0.625193 3.11624L20.0062 3.11624L20.0062 0.616238C20.0097 0.366191 20.1619 0.142308 20.3933 0.0470931C20.6246 -0.0481216 20.8904 0.00366329 21.069 0.178738L24.8201 3.92874C25.0599 4.17601 25.0599 4.56897 24.8201 4.81624L21.069 8.56624C20.8887 8.74287 20.6199 8.79382 20.3875 8.69542C20.1551 8.59702 20.0047 8.36856 20.0062 8.11624L20.0062 5.61624L0.625193 5.61624C0.279908 5.61624 0 5.33642 0 4.99124Z" fill="rgb(111.646,111.646,111.646)" fill-rule="nonzero" />
	<path id="Icon color" d="M0 3.74124C0 3.39606 0.279908 3.11624 0.625193 3.11624L20.0062 3.11624L20.0062 0.616238C20.0097 0.366191 20.1619 0.142308 20.3933 0.0470931C20.6246 -0.0481216 20.8904 0.00366329 21.069 0.178738L24.8201 3.92874C25.0599 4.17601 25.0599 4.56897 24.8201 4.81624L21.069 8.56624C20.8887 8.74287 20.6199 8.79382 20.3875 8.69542C20.1551 8.59702 20.0047 8.36856 20.0062 8.11624L20.0062 5.61624L0.625193 5.61624C0.279908 5.61624 0 5.33642 0 4.99124L0 3.74124Z" fill-rule="nonzero" stroke="rgb(150.96,150.96,150.96)" stroke-opacity="0" stroke-width="0.000000" />
</svg>
