<svg viewBox="0 0 10 18" xmlns="http://www.w3.org/2000/svg" xmlns:xlink="http://www.w3.org/1999/xlink" width="10.000000" height="18.000000" fill="none" customFrame="#000000">
	<path id="Icon color" d="M9.5 3L6.5 3C5.94772 3 5.5 3.44772 5.5 4L5.5 7L9.5 7C9.61374 6.99748 9.7216 7.05039 9.78923 7.14188C9.85685 7.23336 9.87578 7.35201 9.84 7.46L9.1 9.66C9.03181 9.86192 8.84312 9.99842 8.63 10L5.5 10L5.5 17.5C5.5 17.7761 5.27614 18 5 18L2.5 18C2.22386 18 2 17.7761 2 17.5L2 10L0.5 10C0.223858 10 0 9.77614 0 9.5L0 7.5C0 7.22386 0.223858 7 0.5 7L2 7L2 4C2 1.79086 3.79086 4.44089e-16 6 0L9.5 0C9.77614 0 10 0.223858 10 0.5L10 2.5C10 2.77614 9.77614 3 9.5 3Z" fill="rgb(111.646,111.646,111.646)" fill-rule="nonzero" />
	<path id="Icon color" d="M6.5 3C5.94772 3 5.5 3.44772 5.5 4L5.5 7L9.5 7C9.61374 6.99748 9.7216 7.05039 9.78923 7.14188C9.85685 7.23336 9.87578 7.35201 9.84 7.46L9.1 9.66C9.03181 9.86192 8.84312 9.99842 8.63 10L5.5 10L5.5 17.5C5.5 17.7761 5.27614 18 5 18L2.5 18C2.22386 18 2 17.7761 2 17.5L2 10L0.5 10C0.223858 10 0 9.77614 0 9.5L0 7.5C0 7.22386 0.223858 7 0.5 7L2 7L2 4C2 1.79086 3.79086 4.44089e-16 6 0L9.5 0C9.77614 0 10 0.223858 10 0.5L10 2.5C10 2.77614 9.77614 3 9.5 3L6.5 3Z" fill-rule="nonzero" stroke="rgb(150.96,150.96,150.96)" stroke-opacity="0" stroke-width="0.000000" />
</svg>
