<svg viewBox="0 0 18 18" xmlns="http://www.w3.org/2000/svg" xmlns:xlink="http://www.w3.org/1999/xlink" width="18.000000" height="18.000000" fill="none">
	<rect id="filter (1) 2" width="18.000000" height="18.000000" x="0.000000" y="0.000000" fill="rgb(255,255,255)" fill-opacity="0" />
	<g id="Group">
		<path id="Vector" d="M15.2133 3.95389L7.18145 3.95389C6.96063 3.29805 6.3403 2.82422 5.61095 2.82422C4.8816 2.82422 4.26127 3.29805 4.04045 3.95389L2.78674 3.95389C2.49551 3.95389 2.2594 4.19 2.2594 4.48124C2.2594 4.77247 2.49551 5.00858 2.78674 5.00858L4.04049 5.00858C4.2613 5.66442 4.88163 6.13826 5.61099 6.13826C6.34034 6.13826 6.96067 5.66442 7.18149 5.00858L15.2133 5.00858C15.5046 5.00858 15.7407 4.77247 15.7407 4.48124C15.7407 4.19 15.5046 3.95389 15.2133 3.95389ZM5.61095 5.08357C5.27883 5.08357 5.00862 4.81336 5.00862 4.48124C5.00862 4.14912 5.27883 3.87891 5.61095 3.87891C5.94307 3.87891 6.21328 4.14912 6.21328 4.48124C6.21328 4.81336 5.94307 5.08357 5.61095 5.08357Z" fill="rgb(161,138,104)" fill-rule="nonzero" />
		<path id="Vector" d="M15.2133 8.47269L13.9595 8.47269C13.7387 7.81685 13.1184 7.34302 12.389 7.34302C11.6597 7.34302 11.0394 7.81685 10.8186 8.47269L2.78674 8.47269C2.49551 8.47269 2.2594 8.7088 2.2594 9.00004C2.2594 9.29127 2.49551 9.52738 2.78674 9.52738L10.8186 9.52738C11.0394 10.1832 11.6598 10.6571 12.3891 10.6571C13.1184 10.6571 13.7388 10.1832 13.9596 9.52738L15.2133 9.52738C15.5046 9.52738 15.7407 9.29127 15.7407 9.00004C15.7407 8.7088 15.5046 8.47269 15.2133 8.47269ZM12.3891 9.60237C12.057 9.60237 11.7867 9.33216 11.7867 9.00004C11.7867 8.66792 12.057 8.39771 12.3891 8.39771C12.7212 8.39771 12.9914 8.66792 12.9914 9.00004C12.9914 9.33216 12.7212 9.60237 12.3891 9.60237Z" fill="rgb(161,138,104)" fill-rule="nonzero" />
		<path id="Vector" d="M15.2133 12.9915L9.44084 12.9915C9.22002 12.3357 8.59969 11.8618 7.87034 11.8618C7.14099 11.8618 6.52065 12.3357 6.29984 12.9915L2.78674 12.9915C2.49551 12.9915 2.2594 13.2276 2.2594 13.5188C2.2594 13.8101 2.49551 14.0462 2.78674 14.0462L6.29984 14.0462C6.52065 14.702 7.14099 15.1759 7.87034 15.1759C8.59969 15.1759 9.22002 14.702 9.44084 14.0462L15.2133 14.0462C15.5046 14.0462 15.7407 13.8101 15.7407 13.5188C15.7407 13.2276 15.5046 12.9915 15.2133 12.9915ZM7.87034 14.1212C7.53822 14.1212 7.268 13.851 7.268 13.5189C7.268 13.1868 7.53822 12.9165 7.87034 12.9165C8.20246 12.9165 8.47267 13.1867 8.47267 13.5188C8.47267 13.851 8.20246 14.1212 7.87034 14.1212Z" fill="rgb(161,138,104)" fill-rule="nonzero" />
	</g>
</svg>
