<svg viewBox="0 0 18 18" xmlns="http://www.w3.org/2000/svg" xmlns:xlink="http://www.w3.org/1999/xlink" width="18.000000" height="18.000000" fill="none" customFrame="#000000">
	<path id="Icon color" d="M13 -0L5 0C2.23858 0 0 2.23858 -0 5L0 13C0 15.7614 2.23858 18 5 18L13 18C15.7614 18 18 15.7614 18 13L18 5C18 2.23858 15.7614 0 13 -0ZM16.25 13C16.2445 14.7926 14.7926 16.2445 13 16.25L5 16.25C3.20736 16.2445 1.7555 14.7926 1.75 13L1.75 5C1.7555 3.20736 3.20736 1.7555 5 1.75L13 1.75C14.7926 1.7555 16.2445 3.20736 16.25 5L16.25 13ZM13.75 5.25C14.3023 5.25 14.75 4.80228 14.75 4.25C14.75 3.69772 14.3023 3.25 13.75 3.25C13.1977 3.25 12.75 3.69772 12.75 4.25C12.75 4.80228 13.1977 5.25 13.75 5.25ZM9 4.50002C6.51472 4.50002 4.5 6.51472 4.5 9.00002C4.5 11.4853 6.51472 13.5 9 13.5C11.4853 13.5 13.5 11.4853 13.5 9.00002C13.5027 7.80572 13.0294 6.65958 12.1849 5.8151C11.3404 4.9706 10.1943 4.49734 9 4.50002ZM6.25 9C6.25 10.5188 7.48122 11.75 9 11.75C10.5188 11.75 11.75 10.5188 11.75 9C11.75 7.48122 10.5188 6.25 9 6.25C7.48122 6.25 6.25 7.48122 6.25 9Z" fill="rgb(111.646,111.646,111.646)" fill-rule="evenodd" />
	<path id="Icon color" d="M13 -0L5 0C2.23858 0 0 2.23858 -0 5L0 13C0 15.7614 2.23858 18 5 18L13 18C15.7614 18 18 15.7614 18 13L18 5C18 2.23858 15.7614 0 13 -0ZM16.25 13C16.2445 14.7926 14.7926 16.2445 13 16.25L5 16.25C3.20736 16.2445 1.7555 14.7926 1.75 13L1.75 5C1.7555 3.20736 3.20736 1.7555 5 1.75L13 1.75C14.7926 1.7555 16.2445 3.20736 16.25 5L16.25 13ZM13.75 5.25C14.3023 5.25 14.75 4.80228 14.75 4.25C14.75 3.69772 14.3023 3.25 13.75 3.25C13.1977 3.25 12.75 3.69772 12.75 4.25C12.75 4.80228 13.1977 5.25 13.75 5.25ZM9 4.50002C6.51472 4.50002 4.5 6.51472 4.5 9.00002C4.5 11.4853 6.51472 13.5 9 13.5C11.4853 13.5 13.5 11.4853 13.5 9.00002C13.5027 7.80572 13.0294 6.65958 12.1849 5.8151C11.3404 4.9706 10.1943 4.49734 9 4.50002ZM6.25 9C6.25 10.5188 7.48122 11.75 9 11.75C10.5188 11.75 11.75 10.5188 11.75 9C11.75 7.48122 10.5188 6.25 9 6.25C7.48122 6.25 6.25 7.48122 6.25 9Z" fill-rule="evenodd" stroke="rgb(150.96,150.96,150.96)" stroke-opacity="0" stroke-width="0.000000" />
</svg>
