<svg viewBox="0 0 6.36243 11.2447" xmlns="http://www.w3.org/2000/svg" xmlns:xlink="http://www.w3.org/1999/xlink" width="6.362427" height="11.244720" fill="none" customFrame="#000000">
	<path id="Icon color" d="M0.0831416 1.08018C0.0299305 1.02741 4.9929e-16 0.955565 4.9929e-16 0.88062C4.9929e-16 0.805675 0.0299305 0.733833 0.0831416 0.681056L0.679022 0.0851763C0.730027 0.0308292 0.801241 0 0.875774 0C0.950308 0 1.02152 0.0308292 1.07253 0.0851763L6.23869 5.25134C6.31778 5.33034 6.36227 5.4375 6.36237 5.54928L6.36237 5.69544C6.36227 5.80722 6.31778 5.91439 6.23869 5.99338L1.07253 11.1595C1.02152 11.2139 0.950308 11.2447 0.875774 11.2447C0.801241 11.2447 0.730027 11.2139 0.679022 11.1595L0.0831416 10.5637C0.0299305 10.5109 0 10.4391 0 10.3641C0 10.2892 0.0299305 10.2173 0.0831416 10.1645L4.62532 5.62236L0.0831416 1.08018Z" fill="rgb(0,0,0)" fill-rule="nonzero" />
	<path id="Icon color" d="M4.9929e-16 0.88062C4.9929e-16 0.805675 0.0299305 0.733833 0.0831416 0.681056L0.679022 0.0851763C0.730027 0.0308292 0.801241 0 0.875774 0C0.950308 0 1.02152 0.0308292 1.07253 0.0851763L6.23869 5.25134C6.31778 5.33034 6.36227 5.4375 6.36237 5.54928L6.36237 5.69544C6.36227 5.80722 6.31778 5.91439 6.23869 5.99338L1.07253 11.1595C1.02152 11.2139 0.950308 11.2447 0.875774 11.2447C0.801241 11.2447 0.730027 11.2139 0.679022 11.1595L0.0831416 10.5637C0.0299305 10.5109 0 10.4391 0 10.3641C0 10.2892 0.0299305 10.2173 0.0831416 10.1645L4.62532 5.62236L0.0831416 1.08018C0.0299305 1.02741 4.9929e-16 0.955565 4.9929e-16 0.88062Z" fill-rule="nonzero" stroke="rgb(151,151,151)" stroke-opacity="0" stroke-width="0.000000" />
</svg>
