<svg viewBox="0 0 19 19" xmlns="http://www.w3.org/2000/svg" xmlns:xlink="http://www.w3.org/1999/xlink" width="19.000000" height="19.000000" fill="none" customFrame="#000000">
	<path id="Icon color" d="M2.5 16.5L8 16.5C8.27614 16.5 8.5 16.7239 8.5 17L8.5 18C8.5 18.2761 8.27614 18.5 8 18.5L2.5 18.5C1.39544 18.5 0.5 17.6046 0.5 16.5L0.5 2.5C0.5 1.39544 1.39544 0.5 2.5 0.5L8 0.5C8.27614 0.5 8.5 0.72386 8.5 1L8.5 2C8.5 2.27614 8.27614 2.5 8 2.5L2.5 2.5L2.5 16.5ZM13.14 3.65L18.28 8.78C18.4189 8.92172 18.4977 9.11158 18.5 9.31L18.5 9.69C18.4998 9.88884 18.4207 10.0795 18.28 10.22L13.14 15.35C13.0461 15.4447 12.9183 15.4979 12.785 15.4979C12.6517 15.4979 12.5239 15.4447 12.43 15.35L11.72 14.65C11.6253 14.5561 11.5721 14.4283 11.5721 14.295C11.5721 14.1617 11.6253 14.0339 11.72 13.94L15.17 10.5L5 10.5C4.72386 10.5 4.5 10.2761 4.5 10L4.5 9C4.5 8.72386 4.72386 8.5 5 8.5L15.17 8.5L11.72 5.06C11.6259 4.96784 11.5729 4.8417 11.5729 4.71C11.5729 4.57832 11.6259 4.45216 11.72 4.36L12.43 3.65C12.5239 3.55534 12.6517 3.5021 12.785 3.5021C12.9183 3.5021 13.0461 3.55534 13.14 3.65Z" fill="rgb(0,0,0)" fill-rule="evenodd" />
	<path id="Icon color" d="M2.5 16.5L8 16.5C8.27614 16.5 8.5 16.7239 8.5 17L8.5 18C8.5 18.2761 8.27614 18.5 8 18.5L2.5 18.5C1.39544 18.5 0.5 17.6046 0.5 16.5L0.5 2.5C0.5 1.39544 1.39544 0.5 2.5 0.5L8 0.5C8.27614 0.5 8.5 0.72386 8.5 1L8.5 2C8.5 2.27614 8.27614 2.5 8 2.5L2.5 2.5L2.5 16.5ZM13.14 3.65L18.28 8.78C18.4189 8.92172 18.4977 9.11158 18.5 9.31L18.5 9.69C18.4998 9.88884 18.4207 10.0795 18.28 10.22L13.14 15.35C13.0461 15.4447 12.9183 15.4979 12.785 15.4979C12.6517 15.4979 12.5239 15.4447 12.43 15.35L11.72 14.65C11.6253 14.5561 11.5721 14.4283 11.5721 14.295C11.5721 14.1617 11.6253 14.0339 11.72 13.94L15.17 10.5L5 10.5C4.72386 10.5 4.5 10.2761 4.5 10L4.5 9C4.5 8.72386 4.72386 8.5 5 8.5L15.17 8.5L11.72 5.06C11.6259 4.96784 11.5729 4.8417 11.5729 4.71C11.5729 4.57832 11.6259 4.45216 11.72 4.36L12.43 3.65C12.5239 3.55534 12.6517 3.5021 12.785 3.5021C12.9183 3.5021 13.0461 3.55534 13.14 3.65Z" fill-rule="evenodd" stroke="rgb(255,255,255)" stroke-width="1.000000" />
</svg>
