<svg viewBox="0 0 21.0275 21" xmlns="http://www.w3.org/2000/svg" xmlns:xlink="http://www.w3.org/1999/xlink" width="21.027451" height="21.000000" fill="none" customFrame="#000000">
	<path id="Icon color" d="M15.5154 5.5C15.5154 8.26142 13.2761 10.5 10.5139 10.5C7.75161 10.5 5.51237 8.26142 5.51237 5.5C5.51237 2.73858 7.75161 0.5 10.5139 0.5C13.2761 0.5 15.5154 2.73858 15.5154 5.5ZM13.5149 5.49998C13.5149 3.84314 12.1713 2.49998 10.514 2.49998C8.85659 2.49998 7.51305 3.84314 7.51305 5.49998C7.51305 7.15684 8.85659 8.5 10.514 8.5C12.1713 8.5 13.5149 7.15684 13.5149 5.49998ZM20.4069 19.05L18.5163 15.26C17.6683 13.5683 15.9377 12.5001 14.0449 12.5L6.98279 12.5C5.08999 12.5001 3.35939 13.5683 2.51143 15.26L0.620852 19.05C0.464852 19.3595 0.480272 19.7277 0.661632 20.0231C0.842992 20.3185 1.16443 20.4989 1.51113 20.5L19.5166 20.5C19.8633 20.4989 20.1847 20.3185 20.3661 20.0231C20.5474 19.7277 20.5629 19.3595 20.4069 19.05ZM4.30203 16.16L3.13167 18.5L17.8962 18.5L16.7258 16.16C16.2185 15.144 15.1808 14.5015 14.045 14.5L6.98283 14.5C5.84699 14.5015 4.80937 15.144 4.30203 16.16Z" fill="rgb(0,0,0)" fill-rule="evenodd" />
	<path id="Icon color" d="M15.5154 5.5C15.5154 8.26142 13.2761 10.5 10.5139 10.5C7.75161 10.5 5.51237 8.26142 5.51237 5.5C5.51237 2.73858 7.75161 0.5 10.5139 0.5C13.2761 0.5 15.5154 2.73858 15.5154 5.5ZM13.5149 5.49998C13.5149 3.84314 12.1713 2.49998 10.514 2.49998C8.85659 2.49998 7.51305 3.84314 7.51305 5.49998C7.51305 7.15684 8.85659 8.5 10.514 8.5C12.1713 8.5 13.5149 7.15684 13.5149 5.49998ZM20.4069 19.05L18.5163 15.26C17.6683 13.5683 15.9377 12.5001 14.0449 12.5L6.98279 12.5C5.08999 12.5001 3.35939 13.5683 2.51143 15.26L0.620852 19.05C0.464852 19.3595 0.480272 19.7277 0.661632 20.0231C0.842992 20.3185 1.16443 20.4989 1.51113 20.5L19.5166 20.5C19.8633 20.4989 20.1847 20.3185 20.3661 20.0231C20.5474 19.7277 20.5629 19.3595 20.4069 19.05ZM4.30203 16.16L3.13167 18.5L17.8962 18.5L16.7258 16.16C16.2185 15.144 15.1808 14.5015 14.045 14.5L6.98283 14.5C5.84699 14.5015 4.80937 15.144 4.30203 16.16Z" fill-rule="evenodd" stroke="rgb(255,255,255)" stroke-width="1.000000" />
</svg>
