<svg viewBox="0 0 19.7597 19.7485" xmlns="http://www.w3.org/2000/svg" xmlns:xlink="http://www.w3.org/1999/xlink" width="19.759705" height="19.748535" fill="none" customFrame="#000000">
	<path id="Icon color" d="M15.0277 13.5245L19.2491 17.7492C19.4377 17.9588 19.4284 18.2797 19.228 18.478L18.4893 19.2173C18.3902 19.3173 18.2553 19.3735 18.1146 19.3735C17.9739 19.3735 17.8391 19.3173 17.74 19.2173L13.5186 14.9926C13.4018 14.8756 13.2958 14.7484 13.202 14.6123L12.4104 13.5562C11.1008 14.6028 9.47448 15.1726 7.79852 15.1721C4.34498 15.1841 1.34398 12.7999 0.572204 9.43105C-0.199556 6.06217 1.46386 2.60771 4.57768 1.11281C7.6915 -0.382086 11.4247 0.481554 13.5671 3.19241C15.7095 5.90327 15.6893 9.73787 13.5186 12.426L14.5739 13.1548C14.7387 13.2604 14.891 13.3844 15.0277 13.5245ZM2.5219 7.77855C2.5219 10.6952 4.8844 13.0595 7.79868 13.0595C9.19818 13.0595 10.5403 12.5031 11.5299 11.5128C12.5195 10.5224 13.0755 9.17915 13.0755 7.77855C13.0755 4.86195 10.713 2.49759 7.79868 2.49759C4.8844 2.49759 2.5219 4.86195 2.5219 7.77855Z" fill="rgb(0,0,0)" fill-rule="evenodd" />
	<path id="Icon color" d="M15.0277 13.5245L19.2491 17.7492C19.4377 17.9588 19.4284 18.2797 19.228 18.478L18.4893 19.2173C18.3902 19.3173 18.2553 19.3735 18.1146 19.3735C17.9739 19.3735 17.8391 19.3173 17.74 19.2173L13.5186 14.9926C13.4018 14.8756 13.2958 14.7484 13.202 14.6123L12.4104 13.5562C11.1008 14.6028 9.47448 15.1726 7.79852 15.1721C4.34498 15.1841 1.34398 12.7999 0.572204 9.43105C-0.199556 6.06217 1.46386 2.60771 4.57768 1.11281C7.6915 -0.382086 11.4247 0.481554 13.5671 3.19241C15.7095 5.90327 15.6893 9.73787 13.5186 12.426L14.5739 13.1548C14.7387 13.2604 14.891 13.3844 15.0277 13.5245ZM2.5219 7.77855C2.5219 10.6952 4.8844 13.0595 7.79868 13.0595C9.19818 13.0595 10.5403 12.5031 11.5299 11.5128C12.5195 10.5224 13.0755 9.17915 13.0755 7.77855C13.0755 4.86195 10.713 2.49759 7.79868 2.49759C4.8844 2.49759 2.5219 4.86195 2.5219 7.77855Z" fill-rule="evenodd" stroke="rgb(255,255,255)" stroke-width="0.750000" />
</svg>
