<svg viewBox="0 0 19.7597 19.76" xmlns="http://www.w3.org/2000/svg" xmlns:xlink="http://www.w3.org/1999/xlink" width="19.759693" height="19.760010" fill="none" customFrame="#000000">
	<path id="Icon color" d="M15.0277 13.5324L19.2491 17.7597C19.4377 17.9695 19.4284 18.2905 19.228 18.4889L18.4893 19.2287C18.3902 19.3288 18.2553 19.385 18.1146 19.385C17.9739 19.385 17.8391 19.3288 17.74 19.2287L13.5186 15.0014C13.4018 14.8844 13.2958 14.7571 13.202 14.6209L12.4104 13.5641C11.1008 14.6114 9.47448 15.1816 7.79852 15.1811C4.34498 15.1931 1.34398 12.8074 0.572196 9.43651C-0.199564 6.06559 1.46386 2.60905 4.57768 1.11325C7.6915 -0.382549 11.4247 0.481611 13.5671 3.19411C15.7095 5.90661 15.6893 9.74353 13.5186 12.4333L14.5739 13.1625C14.7387 13.2682 14.891 13.3923 15.0277 13.5324ZM2.5219 7.78299C2.5219 10.7014 4.8844 13.0671 7.7987 13.0671C9.19818 13.0671 10.5404 12.5104 11.5299 11.5195C12.5195 10.5285 13.0755 9.18443 13.0755 7.78299C13.0755 4.86465 10.713 2.49885 7.7987 2.49885C4.8844 2.49885 2.5219 4.86465 2.5219 7.78299Z" fill="rgb(0,0,0)" fill-rule="evenodd" />
	<path id="Icon color" d="M15.0277 13.5324L19.2491 17.7597C19.4377 17.9695 19.4284 18.2905 19.228 18.4889L18.4893 19.2287C18.3902 19.3288 18.2553 19.385 18.1146 19.385C17.9739 19.385 17.8391 19.3288 17.74 19.2287L13.5186 15.0014C13.4018 14.8844 13.2958 14.7571 13.202 14.6209L12.4104 13.5641C11.1008 14.6114 9.47448 15.1816 7.79852 15.1811C4.34498 15.1931 1.34398 12.8074 0.572196 9.43651C-0.199564 6.06559 1.46386 2.60905 4.57768 1.11325C7.6915 -0.382549 11.4247 0.481611 13.5671 3.19411C15.7095 5.90661 15.6893 9.74353 13.5186 12.4333L14.5739 13.1625C14.7387 13.2682 14.891 13.3923 15.0277 13.5324ZM2.5219 7.78299C2.5219 10.7014 4.8844 13.0671 7.7987 13.0671C9.19818 13.0671 10.5404 12.5104 11.5299 11.5195C12.5195 10.5285 13.0755 9.18443 13.0755 7.78299C13.0755 4.86465 10.713 2.49885 7.7987 2.49885C4.8844 2.49885 2.5219 4.86465 2.5219 7.78299Z" fill-rule="evenodd" stroke="rgb(255,255,255)" stroke-width="0.750000" />
</svg>
