<svg viewBox="-1 -1 21.76 21.76" xmlns="http://www.w3.org/2000/svg" xmlns:xlink="http://www.w3.org/1999/xlink" width="21.000000" height="21.000000" fill="none">
	<rect id="shopping-cart 1" width="21.000000" height="21.000000" x="0.000000" y="0.000000" fill="rgb(255,255,255)" fill-opacity="0" />
	<path id="Vector" d="M6.76598 13.5766L6.76694 13.5766C6.76774 13.5766 6.76854 13.5764 6.76934 13.5764L17.9238 13.5764C18.1984 13.5764 18.4399 13.3942 18.5153 13.1302L20.9763 4.51693C21.0293 4.33124 20.9921 4.13161 20.876 3.97748C20.7597 3.82335 20.5778 3.73267 20.3848 3.73267L5.34709 3.73267L4.90729 1.7535C4.84465 1.472 4.59503 1.27173 4.30664 1.27173L0.615234 1.27173C0.275413 1.27173 0 1.54714 0 1.88696C0 2.22678 0.275413 2.5022 0.615234 2.5022L3.81317 2.5022C3.89104 2.85291 5.91779 11.9734 6.03442 12.4982C5.38058 12.7824 4.92187 13.4343 4.92187 14.1916C4.92187 15.2093 5.74988 16.0374 6.76758 16.0374L17.9238 16.0374C18.2636 16.0374 18.5391 15.7619 18.5391 15.4221C18.5391 15.0823 18.2636 14.8069 17.9238 14.8069L6.76758 14.8069C6.4284 14.8069 6.15234 14.5308 6.15234 14.1916C6.15234 13.853 6.42744 13.5774 6.76598 13.5766ZM19.5691 4.96313L17.4597 12.3459L7.26105 12.3459L5.62042 4.96313L19.5691 4.96313Z" fill="rgb(0,0,0)" fill-rule="nonzero" />
	<path id="Vector" d="M6.15234 17.8828C6.15234 18.9005 6.98035 19.7285 7.99805 19.7285C9.01575 19.7285 9.84375 18.9005 9.84375 17.8828C9.84375 16.8651 9.01575 16.0371 7.99805 16.0371C6.98035 16.0371 6.15234 16.8651 6.15234 17.8828ZM7.99805 17.2676C8.33723 17.2676 8.61328 17.5436 8.61328 17.8828C8.61328 18.222 8.33723 18.498 7.99805 18.498C7.65887 18.498 7.38281 18.222 7.38281 17.8828C7.38281 17.5436 7.65887 17.2676 7.99805 17.2676Z" fill="rgb(0,0,0)" fill-rule="nonzero" />
	<path id="Vector" d="M14.8477 17.8828C14.8477 18.9005 15.6757 19.7285 16.6934 19.7285C17.7111 19.7285 18.5391 18.9005 18.5391 17.8828C18.5391 16.8651 17.7111 16.0371 16.6934 16.0371C15.6757 16.0371 14.8477 16.8651 14.8477 17.8828ZM16.6934 17.2676C17.0325 17.2676 17.3086 17.5436 17.3086 17.8828C17.3086 18.222 17.0325 18.498 16.6934 18.498C16.3542 18.498 16.0781 18.222 16.0781 17.8828C16.0781 17.5436 16.3542 17.2676 16.6934 17.2676Z" fill="rgb(0,0,0)" fill-rule="nonzero" />
</svg>
