<svg viewBox="0 0 20 20" xmlns="http://www.w3.org/2000/svg" xmlns:xlink="http://www.w3.org/1999/xlink" width="20.000000" height="20.000000" fill="none" customFrame="#000000">
	<path id="Icon color" d="M-0 10C0 4.47716 4.47716 0 10 -0C12.6522 0 15.1957 1.05356 17.0711 2.92894C18.9464 4.8043 20 7.34784 20 10C20 15.5228 15.5228 20 10 20C4.47716 20 0 15.5228 -0 10ZM8.7301 13.35L14.3501 7.73004C14.5342 7.5369 14.5342 7.23318 14.3501 7.04004L13.8201 6.51004C13.6257 6.31946 13.3145 6.31946 13.1201 6.51004L8.3801 11.25L6.8801 9.76004C6.78936 9.66336 6.66268 9.60852 6.5301 9.60852C6.39752 9.60852 6.27084 9.66336 6.1801 9.76004L5.6501 10.29C5.55544 10.3839 5.5022 10.5117 5.5022 10.645C5.5022 10.7784 5.55544 10.9062 5.6501 11L8.0301 13.35C8.12082 13.4467 8.24752 13.5016 8.3801 13.5016C8.51268 13.5016 8.63936 13.4467 8.7301 13.35Z" fill="rgb(161,138,104)" fill-rule="evenodd" />
	<path id="Icon color" d="M-0 10C0 4.47716 4.47716 0 10 -0C12.6522 0 15.1957 1.05356 17.0711 2.92894C18.9464 4.8043 20 7.34784 20 10C20 15.5228 15.5228 20 10 20C4.47716 20 0 15.5228 -0 10ZM8.7301 13.35L14.3501 7.73004C14.5342 7.5369 14.5342 7.23318 14.3501 7.04004L13.8201 6.51004C13.6257 6.31946 13.3145 6.31946 13.1201 6.51004L8.3801 11.25L6.8801 9.76004C6.78936 9.66336 6.66268 9.60852 6.5301 9.60852C6.39752 9.60852 6.27084 9.66336 6.1801 9.76004L5.6501 10.29C5.55544 10.3839 5.5022 10.5117 5.5022 10.645C5.5022 10.7784 5.55544 10.9062 5.6501 11L8.0301 13.35C8.12082 13.4467 8.24752 13.5016 8.3801 13.5016C8.51268 13.5016 8.63936 13.4467 8.7301 13.35Z" fill-rule="evenodd" stroke="rgb(150.96,150.96,150.96)" stroke-opacity="0" stroke-width="0.000000" />
</svg>
